<svg xmlns="http://www.w3.org/2000/svg" version="1.1" xmlns:xlink="http://www.w3.org/1999/xlink" xmlns:svgjs="http://svgjs.com/svgjs" width="360" height="100" preserveAspectRatio="none" viewBox="0 0 360 100"><g mask="url(&quot;#SvgjsMask2136&quot;)" fill="none"><rect width="360" height="100" x="0" y="0" fill="url(#SvgjsLinearGradient2137)"></rect><path d="M113.97 72.14L123.68 72.14L123.68 75.6L113.97 75.6z" fill="rgba(237, 233, 219, 1)"></path><path d="M56.44 42.6L61.56 42.6L61.56 47.72L56.44 47.72z" fill="rgba(231, 115, 8, 1)"></path><path d="M254.19 83.17 a6.78 6.78 0 1 0 13.56 0 a6.78 6.78 0 1 0 -13.56 0z" fill="rgba(231, 115, 8, 1)"></path><path d="M78.65 88.01a7.68 7.68 0 1 0 6.19-14.06z" stroke="rgba(231, 115, 8, 1)"></path><path d="M247.2 60.95L250.5 60.95L250.5 64.25L247.2 64.25z" stroke="rgba(231, 115, 8, 1)"></path><path d="M110.63 30.11 a4.34 4.34 0 1 0 8.68 0 a4.34 4.34 0 1 0 -8.68 0z" stroke="rgba(231, 115, 8, 1)"></path><path d="M213.56 28.75 a6.42 6.42 0 1 0 12.84 0 a6.42 6.42 0 1 0 -12.84 0z" stroke="rgba(231, 115, 8, 1)"></path><path d="M237.43 1.77 a2.28 2.28 0 1 0 4.56 0 a2.28 2.28 0 1 0 -4.56 0z" stroke="rgba(231, 115, 8, 1)"></path><path d="M43.44 3.16a2.54 2.54 0 1 0 2.19-4.58z" stroke="rgba(231, 115, 8, 1)"></path><path d="M50.54 79.49a1.91 1.91 0 1 0 1.21-3.62z" stroke="rgba(237, 233, 219, 1)"></path><path d="M208.66 84.93L214.44 84.93L214.44 90.71L208.66 90.71z" fill="rgba(237, 233, 219, 1)"></path><path d="M223.17 75.36 a3.56 3.56 0 1 0 7.12 0 a3.56 3.56 0 1 0 -7.12 0z" fill="rgba(237, 233, 219, 1)"></path><path d="M39.28 56.91 a7.01 7.01 0 1 0 14.02 0 a7.01 7.01 0 1 0 -14.02 0z" stroke="rgba(231, 115, 8, 1)"></path><path d="M22.18 46.11L29.92 46.11L29.92 55.65L22.18 55.65z" stroke="rgba(237, 233, 219, 1)"></path><path d="M84.95 60.78L94.72 60.78L94.72 70.55L84.95 70.55z" stroke="rgba(237, 233, 219, 1)"></path><path d="M147.73 21.19L149.63 21.19L149.63 25.62L147.73 25.62z" stroke="rgba(231, 115, 8, 1)"></path><path d="M125.13 27.24a0.04 0.04 0 1 0-0.01-0.08z" stroke="rgba(237, 233, 219, 1)"></path><path d="M118.45 95.56L126.57 95.56L126.57 104.47L118.45 104.47z" stroke="rgba(231, 115, 8, 1)"></path><path d="M188.21 43.96L194.29 43.96L194.29 50.04L188.21 50.04z" fill="rgba(231, 115, 8, 1)"></path><path d="M22.84 48.32a3.17 3.17 0 1 0 3.5 5.28z" stroke="rgba(231, 115, 8, 1)"></path><path d="M216.85 66.16a5.16 5.16 0 1 0 10.14-1.88z" fill="rgba(231, 115, 8, 1)"></path><path d="M99.75 51.21L106.53 51.21L106.53 51.76L99.75 51.76z" stroke="rgba(231, 115, 8, 1)"></path><path d="M320.25 64.48L328.53 64.48L328.53 73.43L320.25 73.43z" fill="rgba(231, 115, 8, 1)"></path><path d="M353.47 83.93 a4.27 4.27 0 1 0 8.54 0 a4.27 4.27 0 1 0 -8.54 0z" fill="rgba(237, 233, 219, 1)"></path><path d="M42.96 84.77L43.78 84.77L43.78 89.55L42.96 89.55z" stroke="rgba(237, 233, 219, 1)"></path><path d="M141.44 3.87a0.89 0.89 0 1 0-1.62-0.75z" stroke="rgba(231, 115, 8, 1)"></path><path d="M277.69 81.17L285.41 81.17L285.41 87.27L277.69 87.27z" stroke="rgba(237, 233, 219, 1)"></path><path d="M341.25 65.41a9.82 9.82 0 1 0 19.52-2.12z" stroke="rgba(231, 115, 8, 1)"></path><path d="M137.69 8.43L146.28 8.43L146.28 17.02L137.69 17.02z" stroke="rgba(231, 115, 8, 1)"></path><path d="M51.47 27.09L52.01 27.09L52.01 33.09L51.47 33.09z" stroke="rgba(237, 233, 219, 1)"></path><path d="M237.18 57.8L241.33 57.8L241.33 61.95L237.18 61.95z" stroke="rgba(231, 115, 8, 1)"></path><path d="M206.12 18.35 a9.19 9.19 0 1 0 18.38 0 a9.19 9.19 0 1 0 -18.38 0z" stroke="rgba(237, 233, 219, 1)"></path><path d="M224.75 58.96L232.21 58.96L232.21 66.42L224.75 66.42z" stroke="rgba(237, 233, 219, 1)"></path><path d="M92.71 79.94 a8.33 8.33 0 1 0 16.66 0 a8.33 8.33 0 1 0 -16.66 0z" fill="rgba(237, 233, 219, 1)"></path><path d="M119.01 80.42 a4.39 4.39 0 1 0 8.78 0 a4.39 4.39 0 1 0 -8.78 0z" fill="rgba(237, 233, 219, 1)"></path><path d="M83.06 49.84L88.46 49.84L88.46 55.24L83.06 55.24z" stroke="rgba(237, 233, 219, 1)"></path><path d="M334.4 7.93L338.81 7.93L338.81 12.34L334.4 12.34z" fill="rgba(231, 115, 8, 1)"></path><path d="M46.53 61.35L50.9 61.35L50.9 69.31L46.53 69.31z" stroke="rgba(237, 233, 219, 1)"></path><path d="M217.07 23.66a2.48 2.48 0 1 0-0.98 4.86z" stroke="rgba(237, 233, 219, 1)"></path><path d="M244.26 78.25L251.68 78.25L251.68 85.67L244.26 85.67z" stroke="rgba(231, 115, 8, 1)"></path><path d="M204.05 78.38L213.09 78.38L213.09 87.42L204.05 87.42z" fill="rgba(237, 233, 219, 1)"></path><path d="M264.76 90.78L273.35 90.78L273.35 99.37L264.76 99.37z" stroke="rgba(231, 115, 8, 1)"></path><path d="M54.25 65.69L56.35 65.69L56.35 67.79L54.25 67.79z" stroke="rgba(237, 233, 219, 1)"></path><path d="M24.91 75.28L27.23 75.28L27.23 80.16L24.91 80.16z" stroke="rgba(237, 233, 219, 1)"></path><path d="M13.64 73.47L22.4 73.47L22.4 76.91L13.64 76.91z" stroke="rgba(237, 233, 219, 1)"></path></g><defs><mask id="SvgjsMask2136"><rect width="360" height="100" fill="#ffffff"></rect></mask><linearGradient x1="100%" y1="50%" x2="0%" y2="50%" gradientUnits="userSpaceOnUse" id="SvgjsLinearGradient2137"><stop stop-color="rgba(243, 249, 255, 1)" offset="0.25"></stop><stop stop-color="rgba(255, 238, 0, 0.23)" offset="0.34"></stop></linearGradient></defs></svg>